<?xml version="1.0" encoding="iso-8859-1"?>
<!-- Generator: Adobe Illustrator 19.1.1, SVG Export Plug-In . SVG Version: 6.00 Build 0)  -->
<svg version="1.1" id="Layer_1" xmlns="http://www.w3.org/2000/svg" xmlns:xlink="http://www.w3.org/1999/xlink" x="0px" y="0px"
	 viewBox="0 0 48 48" style="enable-background:new 0 0 48 48;" xml:space="preserve">
<rect x="16" y="17" style="fill:#BF360C;" width="16" height="18"/>
<rect x="16" y="17" style="fill:#BF360C;" width="16" height="18"/>
<rect x="16" y="17" style="fill:#BF360C;" width="16" height="18"/>
<path style="fill:#FFB74D;" d="M33,16c0-7.635-18-4.971-18,0v7c0,4.971,4.028,9,9,9c4.971,0,9-4.029,9-9V16z"/>
<path style="fill:#FF5722;" d="M24,6C17.925,6,9,9.404,9,29.286L16,34V21l12-7l4,5v15l7-6c0-4.025-0.674-20-11-20l-1-2H24z"/>
<path style="fill:#784719;" d="M27,23c0,0.551,0.448,1,1,1s1-0.449,1-1s-0.448-1-1-1S27,22.449,27,23"/>
<path style="fill:#784719;" d="M19,23c0,0.551,0.448,1,1,1s1-0.449,1-1s-0.448-1-1-1S19,22.449,19,23"/>
<path style="fill:#FFB74D;" d="M33,16c0-7.635-18-4.971-18,0v7c0,4.971,4.028,9,9,9c4.971,0,9-4.029,9-9V16z"/>
<path style="fill:#FF5722;" d="M24,6C17.925,6,9,9.404,9,29.286L16,34V21l12-7l4,5v15l7-6c0-4.025-0.674-20-11-20l-1-2H24z"/>
<path style="fill:#784719;" d="M27,23c0,0.551,0.448,1,1,1s1-0.449,1-1s-0.448-1-1-1S27,22.449,27,23"/>
<path style="fill:#784719;" d="M19,23c0,0.551,0.448,1,1,1s1-0.449,1-1s-0.448-1-1-1S19,22.449,19,23"/>
<path style="fill:#B3E5FC;" d="M40,46H8c0-11.014,11-13,11-13h10C29,33,40,35.025,40,46"/>
<path style="fill:#FF9800;" d="M24,39c-2.193,0-5-6-5-6v-6h10v6C29,33,26.192,39,24,39"/>
<path style="fill:#FFB74D;" d="M24,40c-4.42,0-5-7-5-7s2.507,4,5,4s5-4,5-4S28.42,40,24,40"/>
<path style="fill:#B3E5FC;" d="M40,46H8c0-11.014,11-13,11-13h10C29,33,40,35.025,40,46"/>
<path style="fill:#FF9800;" d="M24,39c-2.193,0-5-6-5-6v-6h10v6C29,33,26.192,39,24,39"/>
<path style="fill:#FFB74D;" d="M24,40c-4.42,0-5-7-5-7s2.507,4,5,4s5-4,5-4S28.42,40,24,40"/>
<path style="fill:#FF9800;" d="M24,39c-2.193,0-5-6-5-6v-6h10v6C29,33,26.192,39,24,39"/>
<path style="fill:#FFB74D;" d="M24,40c-4.42,0-5-7-5-7s2.507,4,5,4s5-4,5-4S28.42,40,24,40"/>
<path style="fill:#4CAF50;" d="M29,33L29,33H19c0,0-11,1.986-11,13h32C40,35.025,29,33,29,33"/>
<polygon style="fill:#FF9800;" points="24,39 19,33 19,27 29,27 29,33 "/>
<path style="fill:#2E7D32;" d="M29,33l-5,6l-5-6c0,0-0.88,0.161-2.141,0.637l0.603,0.644l5,6L23,40.925V46h2v-5.075l0.536-0.643l5-6
	l0.539-0.664C29.85,33.156,29,33,29,33z"/>
<path style="fill:#FFB74D;" d="M33,16c0-7.635-18-4.971-18,0v7c0,4.971,4.028,9,9,9c4.971,0,9-4.029,9-9V16z"/>
<path style="fill:#FF5722;" d="M24,6C17.925,6,9,9.404,9,29.286L16,34V21l12-7l4,5v15l7-6c0-4.025-0.674-20-11-20l-1-2H24z"/>
<path style="fill:#784719;" d="M27,23c0-0.551,0.448-1,1-1s1,0.449,1,1s-0.448,1-1,1S27,23.551,27,23 M19,23c0,0.551,0.448,1,1,1
	s1-0.449,1-1s-0.448-1-1-1S19,22.449,19,23"/>
</svg>
